<?xml version="1.0" encoding="UTF-8"?>
<svg version="1.1" xmlns="http://www.w3.org/2000/svg" width="283" height="283">
  <path d="M0 0 C1.36318359 0.66128906 1.36318359 0.66128906 2.75390625 1.3359375 C27.48711426 14.07195642 43.66491697 35.78593823 52.2109375 61.86328125 C59.4428634 90.6119768 55.73968581 118.69744848 40.79052734 144.05126953 C31.28811593 159.87622475 20.63293555 175.01673287 10.3125 190.3125 C9.67637787 191.2553183 9.04025574 192.1981366 8.38485718 193.16952515 C4.52236725 198.89384519 0.65884134 204.61746515 -3.20507812 210.34082031 C-4.88331706 212.82713404 -6.56093705 215.31386385 -8.23828125 217.80078125 C-10.62041044 221.33246071 -13.00440793 224.86287071 -15.39004517 228.3921814 C-16.23619708 229.64454196 -17.08174608 230.89731016 -17.92660522 232.15054321 C-20.21001075 235.5370359 -22.5038505 238.91589898 -24.81829834 242.28131104 C-25.64986981 243.49076412 -26.47912934 244.70180844 -27.30670166 245.91400146 C-28.63906546 247.85952568 -29.9838617 249.79587323 -31.33203125 251.73046875 C-31.94337166 252.62793571 -31.94337166 252.62793571 -32.56706238 253.54353333 C-34.72209459 256.60572794 -36.39134703 258.7952757 -40 260 C-44.47113962 260.674889 -46.44822452 260.34355832 -50.3125 257.9375 C-54.68151574 253.76095191 -57.76925315 248.60615551 -61.0234375 243.55859375 C-64.4079826 238.3240317 -67.98663204 233.22992242 -71.5625 228.125 C-84.49462027 209.59002009 -97.12706615 190.8584395 -109.68103027 172.06607056 C-110.92048538 170.2109288 -112.16062163 168.35624192 -113.40148926 166.50204468 C-134.06626875 135.61087917 -148.73183065 107.53596737 -141.9375 68.9375 C-135.81851648 43.71464775 -120.47985885 19.86225868 -98.26757812 6.07324219 C-68.55543464 -11.77028005 -31.6744167 -15.54182283 0 0 Z " fill="#FC5527" transform="translate(186,16)"/>
  <path d="M0 0 C11.33395354 9.6111926 19.51860227 22.18280156 20.88378906 37.29833984 C22.06970946 55.63535427 18.26970102 70.64533343 6.3203125 84.9609375 C-3.88259868 96.01156831 -17.55079929 103.534734 -32.72265625 104.43359375 C-50.94295124 105.11101025 -65.03525373 99.97433407 -79.1875 88.3125 C-90.25640765 77.93412971 -95.54710845 63.64615694 -96.53515625 48.7734375 C-96.94414893 32.73381138 -92.55446787 19.10953761 -82.0625 6.8125 C-74.03277917 -1.55688753 -65.23313375 -7.05432502 -54.3125 -10.875 C-53.64992187 -11.12121094 -52.98734375 -11.36742187 -52.3046875 -11.62109375 C-34.59394549 -17.17965997 -14.19589463 -10.89850734 0 0 Z " fill="#FCF7F2" transform="translate(180.3125,60.875)"/>
  <path d="M0 0 C9.12496222 6.21498148 14.3228107 14.63772049 17.6640625 25.07421875 C19.59250876 36.12914904 17.08563654 46.434819 11.1875 55.875 C4.35038322 65.32079226 -5.55021849 71.0008318 -17 73 C-28.7615158 73.99066531 -38.61283609 70.52271719 -48.04296875 63.47265625 C-55.12722234 57.07649794 -59.4983496 47.59796243 -60.34375 38.1640625 C-60.91757777 25.73387964 -58.78158701 17.33898868 -50.8828125 7.3125 C-38.08691841 -6.53074486 -16.23074931 -10.0464784 0 0 Z " fill="#F85427" transform="translate(164,73)"/>
  <path d="M0 0 C4.78896202 3.00702266 7.3329481 6.66008509 9 12 C9.88750899 18.15877454 9.54896069 23.75608967 6.40625 29.2109375 C2.97849562 33.5718028 -1.48045598 37.02038627 -7 38 C-13.37583693 38.75902821 -17.96357954 38.26998554 -23.24609375 34.4921875 C-27.90659296 30.52713027 -31.47495453 26.20036375 -32.25390625 19.96875 C-32.56313657 14.14324983 -31.42102931 9.7514296 -28 5 C-19.98185696 -3.56915287 -10.56445165 -5.68855089 0 0 Z " fill="#FCF7F2" transform="translate(154,89)"/>
  <path d="M0 0 C0.99 0.66 1.98 1.32 3 2 C3.2667616 4.76628915 3.34804189 7.30619631 3.29296875 10.0703125 C3.28872391 10.86654022 3.28447906 11.66276794 3.28010559 12.48312378 C3.26328834 15.03075729 3.22563179 17.57760489 3.1875 20.125 C3.17245705 21.85024901 3.15876796 23.57551039 3.14648438 25.30078125 C3.11337501 29.53415782 3.06157285 33.76694559 3 38 C2.67 38 2.34 38 2 38 C1.896875 39.258125 1.79375 40.51625 1.6875 41.8125 C1.40266675 45.28746568 0.66690268 46.73349022 -2 49 C-1.85769192 47.58297487 -1.71099254 46.1663904 -1.5625 44.75 C-1.48128906 43.96109375 -1.40007812 43.1721875 -1.31640625 42.359375 C-1 40 -1 40 -0.48731995 38.08746338 C0.30872949 34.67753924 0.12109927 31.21729817 0.09765625 27.734375 C0.0962413 26.94097717 0.09482635 26.14757935 0.09336853 25.33013916 C0.08778415 22.80338728 0.07523454 20.27672496 0.0625 17.75 C0.05748298 16.03385545 0.05292043 14.31770951 0.04882812 12.6015625 C0.03781984 8.40100731 0.02056596 4.20051883 0 0 Z " fill="#FEE5D8" transform="translate(240,87)"/>
  <path d="M0 0 C0 0.66 0 1.32 0 2 C3.3 2 6.6 2 10 2 C10 2.66 10 3.32 10 4 C11.32 4.33 12.64 4.66 14 5 C11.07268341 6.4636583 9.3359908 5.43920047 6.1875 4.625 C-3.44426429 2.42546259 -13.15444628 2.25508807 -23 2 C-23 1.67 -23 1.34 -23 1 C-20.10425766 0.83160792 -17.20842326 0.66522615 -14.3125 0.5 C-13.08756836 0.42845703 -13.08756836 0.42845703 -11.83789062 0.35546875 C-7.88646942 0.13150156 -3.95981243 -0.06451833 0 0 Z " fill="#FECFBF" transform="translate(158,5)"/>
  <path d="M0 0 C1.485 0.99 1.485 0.99 3 2 C3.2487793 4.52197266 3.2487793 4.52197266 3.07421875 7.6640625 C3.01943359 8.78554687 2.96464844 9.90703125 2.90820312 11.0625 C2.83537109 12.238125 2.76253906 13.41375 2.6875 14.625 C2.62626953 15.80835937 2.56503906 16.99171875 2.50195312 18.2109375 C2.34832729 21.14164579 2.18042619 24.0708392 2 27 C1.67 27 1.34 27 1 27 C0.67 18.09 0.34 9.18 0 0 Z " fill="#FEC8B9" transform="translate(240,87)"/>
  <path d="M0 0 C0.33 0 0.66 0 1 0 C1.02688151 1.64574566 1.04634123 3.29161413 1.0625 4.9375 C1.07410156 5.85402344 1.08570312 6.77054687 1.09765625 7.71484375 C1 10 1 10 0 11 C-0.23427778 13.01594582 -0.41336124 15.038474 -0.5625 17.0625 C-0.64628906 18.16722656 -0.73007813 19.27195312 -0.81640625 20.41015625 C-0.87699219 21.26480469 -0.93757813 22.11945313 -1 23 C-1.33 23 -1.66 23 -2 23 C-2.20483028 15.00023956 -2.13480153 7.73865554 0 0 Z " fill="#FEE3D5" transform="translate(86,90)"/>
  <path d="M0 0 C-0.85464844 0.27714844 -1.70929688 0.55429687 -2.58984375 0.83984375 C-3.69457031 1.20207031 -4.79929688 1.56429687 -5.9375 1.9375 C-7.03964844 2.29714844 -8.14179687 2.65679687 -9.27734375 3.02734375 C-11.88123475 3.73856668 -11.88123475 3.73856668 -13 5 C-14.66617115 5.04063832 -16.33388095 5.042721 -18 5 C-15.11550348 2.6229612 -12.57662226 1.31862494 -9 0.25 C-8.154375 -0.01296875 -7.30875 -0.2759375 -6.4375 -0.546875 C-3.8907775 -1.02030418 -2.4249914 -0.83078409 0 0 Z " fill="#FFE5D7" transform="translate(134,50)"/>
  <path d="M0 0 C0 3 0 3 -2.1875 5.375 C-3.115625 6.24125 -4.04375 7.1075 -5 8 C-5.928125 8.928125 -6.85625 9.85625 -7.8125 10.8125 C-8.534375 11.534375 -9.25625 12.25625 -10 13 C-10.66 12.67 -11.32 12.34 -12 12 C-8.04 8.04 -4.08 4.08 0 0 Z " fill="#D84B2C" transform="translate(190,141)"/>
  <path d="M0 0 C0.66 0.33 1.32 0.66 2 1 C-0.64 3.97 -3.28 6.94 -6 10 C-6.33 9.34 -6.66 8.68 -7 8 C-4.69 5.36 -2.38 2.72 0 0 Z " fill="#FEE8DA" transform="translate(131,89)"/>
  <path d="M0 0 C0.33 0.99 0.66 1.98 1 3 C-0.21484375 5.04296875 -0.21484375 5.04296875 -1.9375 7.1875 C-2.50339844 7.90292969 -3.06929687 8.61835938 -3.65234375 9.35546875 C-4.09707031 9.89816406 -4.54179687 10.44085938 -5 11 C-5.66 10.67 -6.32 10.34 -7 10 C-3.535 5.05 -3.535 5.05 0 0 Z " fill="#FFE2D5" transform="translate(182,226)"/>
  <path d="M0 0 C3.57804656 -0.19878036 5.99208089 -0.04108797 9 2 C9.33 2.99 9.66 3.98 10 5 C6.08788267 3.84414715 3.1254959 2.64465038 0 0 Z " fill="#FEDFD2" transform="translate(184,15)"/>
</svg>
